<svg id="Capa_1" enable-background="new 0 0 512 512" height="512" viewBox="0 0 512 512" width="512" xmlns="http://www.w3.org/2000/svg"><g><g><path d="m297.41 439.75c-5.391 1.209-8.781 6.56-7.571 11.951 1.044 4.654 5.174 7.816 9.752 7.816.726 0 1.462-.079 2.199-.245 45.434-10.192 86.689-35.84 116.17-72.22 29.917-36.919 46.393-83.469 46.393-131.075 0-113.429-94.917-208.357-208.348-208.357-114.888 0-208.357 93.469-208.357 208.357 0 47.538 16.434 94.035 46.273 130.928 4.268 5.277 8.792 10.321 13.532 15.134.102.113.196.232.305.341.091.092.19.171.283.259 27.827 28.021 63.3 47.838 101.789 56.549 5.387 1.217 10.745-2.16 11.964-7.549 1.22-5.389-2.16-10.746-7.549-11.965-31.638-7.16-61.023-22.635-85.013-44.441l77.997-77.022v42.844c0 26.206 21.321 47.527 47.528 47.527 26.201 0 47.518-21.321 47.518-47.527v-136.702l94.519-93.337c29.563 33.274 47.552 77.053 47.552 124.96 0 43.034-14.891 85.111-41.931 118.479-26.657 32.896-63.948 56.085-105.005 65.295zm-182.25-58.739c-1.942-2.184-3.841-4.411-5.684-6.689-26.969-33.343-41.821-75.373-41.821-118.346 0-103.856 84.493-188.35 188.35-188.35 48.763 0 93.256 18.631 126.739 49.146l-80.469 79.463v-31.368c13.464-3.473 23.44-15.721 23.44-30.255 0-17.227-14.014-31.241-31.24-31.241h-79.44c-17.226 0-31.241 14.014-31.241 31.241 0 14.532 9.974 26.778 23.435 30.253v125.228zm167.108-182.091c-5.377 1.169-13.981 1.752-22.869-2.904-12.857-6.734-23.871-7.093-32.162-5.411v-24.752h55.031zm12.207-53.075h-79.44c-6.195 0-11.234-5.039-11.234-11.233s5.039-11.234 11.234-11.234h79.44c6.194 0 11.233 5.039 11.233 11.234 0 6.194-5.039 11.233-11.233 11.233zm-67.239 65.478c4.305-1.763 12.191-3.183 22.879 2.415 10.371 5.434 20.414 6.457 28.508 5.854l-51.386 50.744v-59.013zm55.032 149.732c0 15.175-12.342 27.52-27.51 27.52-15.176 0-27.521-12.345-27.521-27.52v-62.601l55.031-54.343z"/><path d="m451.451 90.638c-38.588-45.569-92.044-76.367-150.521-86.721-5.442-.963-10.631 2.666-11.594 8.106s2.666 10.631 8.107 11.595c53.89 9.542 103.162 37.935 138.741 79.95 35.989 42.501 55.81 96.627 55.81 152.409 0 63.036-24.546 122.298-69.117 166.869-44.572 44.571-103.834 69.118-166.87 69.118-63.037 0-122.3-24.547-166.874-69.118-44.575-44.572-69.123-103.834-69.123-166.869 0-55.597 19.706-109.585 55.487-152.02 35.362-41.936 84.384-70.401 138.036-80.149 5.436-.988 9.041-6.195 8.054-11.631-.989-5.437-6.198-9.04-11.631-8.054-58.22 10.578-111.404 41.453-149.757 86.937-38.82 46.038-60.199 104.606-60.199 164.917 0 68.38 26.63 132.666 74.984 181.017 48.353 48.35 112.64 74.977 181.021 74.977s132.667-26.628 181.017-74.978 74.978-112.636 74.978-181.016c0-60.511-21.503-119.23-60.549-165.339z"/><path d="m246.766 13.817c3.474 8.339 15.794 7.906 18.707-.618 2.955-8.647-6.804-16.416-14.607-11.787-4.224 2.505-5.952 7.884-4.1 12.405z"/><path d="m264.322 448.778c-2.377-3.544-6.874-5.221-10.987-4.081-4.2 1.164-7.217 5.031-7.332 9.389-.236 8.914 11.049 13.615 17.221 7.159 3.204-3.352 3.679-8.6 1.098-12.467z"/></g></g></svg>