<?xml version="1.0" encoding="utf-8"?>
<!-- Generator: Adobe Illustrator 24.3.0, SVG Export Plug-In . SVG Version: 6.00 Build 0)  -->
<svg version="1.1" id="Capa_1" xmlns="http://www.w3.org/2000/svg" xmlns:xlink="http://www.w3.org/1999/xlink" x="0px" y="0px"
	 viewBox="0 0 512 512" style="enable-background:new 0 0 512 512;" xml:space="preserve">
<style type="text/css">
	.st0{fill:#E9BFAA;}
</style>
<g>
	<g>
		<path class="st0" d="M297.4,439.8c-5.4,1.2-8.8,6.6-7.6,12c1,4.7,5.2,7.8,9.8,7.8c0.7,0,1.5-0.1,2.2-0.2
			c45.4-10.2,86.7-35.8,116.2-72.2c29.9-36.9,46.4-83.5,46.4-131.1c0-113.4-94.9-208.4-208.3-208.4C141.1,47.6,47.6,141.1,47.6,256
			c0,47.5,16.4,94,46.3,130.9c4.3,5.3,8.8,10.3,13.5,15.1c0.1,0.1,0.2,0.2,0.3,0.3c0.1,0.1,0.2,0.2,0.3,0.3
			c27.8,28,63.3,47.8,101.8,56.5c5.4,1.2,10.7-2.2,12-7.5c1.2-5.4-2.2-10.7-7.5-12c-31.6-7.2-61-22.6-85-44.4l78-77V361
			c0,26.2,21.3,47.5,47.5,47.5s47.5-21.3,47.5-47.5V224.4l94.5-93.3c29.6,33.3,47.6,77.1,47.6,125c0,43-14.9,85.1-41.9,118.5
			C375.8,407.4,338.5,430.5,297.4,439.8z M115.2,381c-1.9-2.2-3.8-4.4-5.7-6.7C82.5,341,67.7,298.9,67.7,256
			c0-103.9,84.5-188.4,188.4-188.4c48.8,0,93.3,18.6,126.7,49.1l-80.5,79.5v-31.4c13.5-3.5,23.4-15.7,23.4-30.3
			c0-17.2-14-31.2-31.2-31.2H215c-17.2,0-31.2,14-31.2,31.2c0,14.5,10,26.8,23.4,30.3V290L115.2,381z M282.3,198.9
			c-5.4,1.2-14,1.8-22.9-2.9c-12.9-6.7-23.9-7.1-32.2-5.4v-24.8h55L282.3,198.9L282.3,198.9z M294.5,145.8H215
			c-6.2,0-11.2-5-11.2-11.2s5-11.2,11.2-11.2h79.4c6.2,0,11.2,5,11.2,11.2C305.7,140.8,300.7,145.8,294.5,145.8z M227.2,211.3
			c4.3-1.8,12.2-3.2,22.9,2.4c10.4,5.4,20.4,6.5,28.5,5.9l-51.4,50.7L227.2,211.3L227.2,211.3z M282.3,361.1
			c0,15.2-12.3,27.5-27.5,27.5c-15.2,0-27.5-12.3-27.5-27.5v-62.6l55-54.3V361.1z"/>
		<path class="st0" d="M451.5,90.6C412.9,45,359.5,14.2,301,3.9c-5.4-1-10.6,2.7-11.6,8.1s2.7,10.6,8.1,11.6
			c53.9,9.5,103.2,37.9,138.7,79.9c36,42.5,55.8,96.6,55.8,152.4c0,63-24.5,122.3-69.1,166.9S319,492,256,492
			s-122.3-24.5-166.9-69.1C44.6,378.3,20,319,20,256c0-55.6,19.7-109.6,55.5-152c35.4-41.9,84.4-70.4,138-80.1c5.4-1,9-6.2,8.1-11.6
			c-1-5.4-6.2-9-11.6-8.1C151.7,14.7,98.6,45.6,60.2,91.1C21.4,137.1,0,195.7,0,256c0,68.4,26.6,132.7,75,181
			c48.4,48.4,112.6,75,181,75s132.7-26.6,181-75s75-112.6,75-181C512,195.5,490.5,136.7,451.5,90.6z"/>
		<path class="st0" d="M246.8,13.8c3.5,8.3,15.8,7.9,18.7-0.6c3-8.6-6.8-16.4-14.6-11.8C246.6,3.9,244.9,9.3,246.8,13.8L246.8,13.8z
			"/>
		<path class="st0" d="M264.3,448.8c-2.4-3.5-6.9-5.2-11-4.1c-4.2,1.2-7.2,5-7.3,9.4c-0.2,8.9,11,13.6,17.2,7.2
			C266.4,457.9,266.9,452.6,264.3,448.8z"/>
	</g>
</g>
</svg>
