<?xml version="1.0" encoding="utf-8"?>
<!-- Generator: Adobe Illustrator 24.3.0, SVG Export Plug-In . SVG Version: 6.00 Build 0)  -->
<svg version="1.1" id="Capa_1" xmlns="http://www.w3.org/2000/svg" xmlns:xlink="http://www.w3.org/1999/xlink" x="0px" y="0px"
	 viewBox="0 0 418 418" style="enable-background:new 0 0 418 418;" xml:space="preserve">
<style type="text/css">
	.st0{fill:#E9BFAA;}
</style>
<path class="st0" d="M207.6,408.8c-14.6,0-29.1-2.9-42.6-8.8l-64.4-28c-23.3-10.1-48-16.6-73.3-19.1l-21.2-2.1
	C2.7,350.4,0,347.5,0,344v-66.4c0-1.5,0.5-2.9,1.4-4.1c1.6-2.1,39.5-51.7,97.5-38.8c32.6,7.2,58.8,20.8,75.1,30.9
	c11.8,7.3,25.7,11.2,40,11.2h64.4c11.1,0,20.9,5.9,26.3,14.7l55.5-63.9c10.8-14.4,28.4-23.2,46.8-23.2h4.1c2.3,0,4.4,1.2,5.7,3.1
	c1.3,1.9,1.5,4.4,0.5,6.5l-50.1,114c-11,25-33.3,43.8-59.8,50.4l-8.8,2.2l-51.4,20.6C234.6,406.3,221.1,408.8,207.6,408.8z
	 M13.6,337.8l15,1.5c26.7,2.7,52.7,9.5,77.4,20.2l64.4,28c22.7,9.9,48.8,10.2,71.7,1.1l51.8-20.7c0.3-0.1,0.6-0.2,0.9-0.3l9.3-2.3
	c22.4-5.6,41.3-21.6,50.6-42.7l45.8-104.1c-11.7,1.7-22.5,8-29.7,17.6L309.4,307c0,0.3,0,0.5,0,0.8c0,17.1-13.9,31-31,31h-89.9
	c-11.7,0-23.2,1.9-34.3,5.6l-2.5-6.4l-2.1-6.5l0.3-0.1c12.4-4.1,25.4-6.3,38.6-6.3h89.9c9.6,0,17.3-7.8,17.3-17.3
	c0-9.6-7.8-17.3-17.3-17.3H214c-16.9,0-33.3-4.6-47.2-13.2c-15.4-9.5-40.2-22.3-70.9-29.2C52,238.3,20.4,272,13.6,280V337.8
	L13.6,337.8z"/>
<path class="st0" d="M268.3,202.9c-10.5,0-22.2-3.2-35.2-9.7c-1.6-0.8-2.8-2.2-3.4-3.8c-0.5-1.5-12.7-36.5,6.6-62.4
	c14.1-18.8,40.5-27.3,78.6-25.2c3.5,0.2,6.2,3,6.4,6.5c0.1,2.7,2.9,66.6-29.6,87.8C284.9,200.6,277,202.9,268.3,202.9z M241.8,182.2
	c17.9,8.4,32.2,9.2,42.6,2.4c19.3-12.6,23.5-50,23.6-69.5c-29.9-0.7-50.2,6-60.6,20C234.9,151.8,239.7,174.6,241.8,182.2z"/>
<path class="st0" d="M164.1,113.6c-12.1,0-26-2.6-38.2-11.5C105.3,87,95.8,58.2,97.7,16.6c0.2-3.5,2.9-6.3,6.4-6.5
	c2.9-0.2,72.7-3.9,96.2,31.3c10.9,16.4,10,37.9-2.7,63.8c-0.8,1.6-2.1,2.8-3.8,3.4C193,109,180.2,113.6,164.1,113.6z M191.5,102.3
	L191.5,102.3L191.5,102.3z M111.1,23.5c-0.6,33.3,7.1,56.1,22.8,67.6c18.8,13.8,44.6,7.9,52.7,5.6c9.3-20.1,10-36.1,2.3-47.7
	C174.6,27.5,132.6,23.3,111.1,23.5z"/>
<path class="st0" d="M217.3,288c-0.2,0-0.4,0-0.6,0c-3.6-0.3-6.3-3.5-6.2-7.1c0.4-8,1.1-15.6,2-22.8c2.8-48.2,1.4-160.5-69.6-191.5
	c-3.4-1.5-5-5.5-3.5-9c1.5-3.4,5.5-5,9-3.5c41.8,18.3,68.1,63.9,76.1,131.7c0.7,6.1,1.2,12.1,1.6,17.9c18.7-47.2,47.3-63.9,49-64.9
	c3.3-1.9,7.4-0.7,9.3,2.6c1.8,3.3,0.7,7.4-2.6,9.3c-0.7,0.4-44.6,26.7-55.6,107.9c-0.8,13.9-2,22.7-2.2,23.5
	C223.6,285.6,220.7,288,217.3,288z"/>
</svg>
