<?xml version="1.0" encoding="utf-8"?>
<!-- Generator: Adobe Illustrator 24.3.0, SVG Export Plug-In . SVG Version: 6.00 Build 0)  -->
<svg version="1.1" id="Capa_1" xmlns="http://www.w3.org/2000/svg" xmlns:xlink="http://www.w3.org/1999/xlink" x="0px" y="0px"
	 viewBox="0 0 511 511" style="enable-background:new 0 0 511 511;" xml:space="preserve">
<style type="text/css">
	.st0{fill:#E9BFAA;}
</style>
<path class="st0" d="M359.1,251.4c24.4-34.8,37.2-75.6,37.2-118V38.7c0-4.7-3.2-8.7-7.8-9.7L259.7,0.2c-1.4-0.3-2.9-0.3-4.3,0
	L126.5,29c-4.6,1-7.8,5.1-7.8,9.7v94.7c0,42.5,12.9,83.3,37.2,118c24.4,34.8,58.3,60.8,98.2,75.3c1.1,0.4,2.3,0.6,3.4,0.6
	c1.2,0,2.3-0.2,3.4-0.6C300.8,312.2,334.8,286.2,359.1,251.4z M257.5,306.7c-34.5-13.3-64-36.3-85.3-66.7
	c-22-31.4-33.6-68.3-33.6-106.6V46.7l118.9-26.5l118.9,26.5v86.7c0,38.3-11.6,75.2-33.6,106.6C321.5,270.4,292,293.4,257.5,306.7z"
	/>
<path class="st0" d="M359.4,68.3c0-4.7-3.2-8.7-7.8-9.7l-91.9-20.5c-1.4-0.3-2.9-0.3-4.3,0l-91.9,20.5c-5.4,1.2-8.8,6.5-7.6,11.9
	c1.2,5.4,6.5,8.8,11.9,7.6l89.8-20l82,18.3v57c0,30.7-9.3,60.2-26.9,85.4c-14.2,20.2-33.1,36.6-55,47.6c-21.9-11-40.9-27.4-55-47.6
	c-15.2-21.8-24.4-47.2-26.5-73.5c-0.2-2.2-0.3-4.4-0.4-6.6c-0.2-5.5-4.8-9.8-10.3-9.6s-9.8,4.8-9.6,10.3c0.1,2.5,0.2,5,0.4,7.5
	c2.4,29.9,12.7,58.8,30,83.4c17.1,24.4,40.3,43.8,67.2,56.3c1.3,0.6,2.8,0.9,4.2,0.9s2.9-0.3,4.2-0.9c26.9-12.4,50.1-31.9,67.2-56.3
	c20-28.5,30.5-62,30.5-96.8L359.4,68.3L359.4,68.3z"/>
<path class="st0" d="M229.1,185.2c1.7,2.1,4.3,3.3,7,3.5c0.2,0,0.4,0,0.7,0c2.5,0,4.9-0.9,6.7-2.6l72.4-65.5
	c4.1-3.7,4.4-10,0.7-14.1c-3.7-4.1-10-4.4-14.1-0.7l-64.7,58.5l-18.5-21.8c-3.6-4.2-9.9-4.7-14.1-1.2c-4.2,3.6-4.7,9.9-1.2,14.1
	L229.1,185.2z"/>
<path class="st0" d="M173.5,330.3c-5.3-6.9-12.9-11.3-21.5-12.4s-17.1,1.3-23.9,6.7c-3.2,2.5-5.8,5.6-7.7,8.9l-2.9-3.8
	c-2.6-3.4-4-7.6-4-11.9v-90c0-18.4-15-33.4-33.4-33.4c-17.3,0-31.6,13-33.2,30.2L36.1,337.3c-0.9,9.9,1.8,19.7,7.9,27.6l84.8,110.5
	V501c0,5.5,4.5,10,10,10s10-4.5,10-10v-29c0-2.2-0.7-4.3-2.1-6.1L59.8,352.8c-3-3.9-4.3-8.7-3.9-13.6l10.7-112.7
	c0.7-6.9,6.4-12.1,13.3-12.1c7.4,0,13.4,6,13.4,13.4v90c0,8.6,2.9,17.2,8.2,24l20.9,27.2l0.1,0.1l16.9,22c3.4,4.4,9.6,5.2,14,1.8
	s5.2-9.6,1.8-14l-16.9-22c-3.9-5.2-3-12.7,2.1-16.7c2.6-2,5.8-2.9,9-2.5s6.1,2.1,8.1,4.7l40.3,53c7.9,10.4,12.3,23.4,12.3,36.5V501
	c0,5.5,4.5,10,10,10s10-4.5,10-10v-69.2c0-17.4-5.8-34.7-16.4-48.6L173.5,330.3z"/>
<path class="st0" d="M476.1,337.3l-10.7-112.7c-1.6-17.2-15.9-30.2-33.2-30.2c-18.4,0-33.4,15-33.4,33.4v90c0,4.3-1.4,8.5-4,11.9
	l-2.9,3.8c-1.9-3.3-4.5-6.4-7.7-8.9c-6.8-5.4-15.3-7.8-23.9-6.7c-8.6,1.1-16.3,5.5-21.5,12.4l-40.3,53
	c-10.6,13.9-16.4,31.1-16.4,48.6V501c0,5.5,4.5,10,10,10s10-4.5,10-10v-69.2c0-13.1,4.4-26,12.3-36.5l40.3-53c2-2.6,4.9-4.3,8.1-4.7
	c3.2-0.4,6.4,0.5,9,2.5c5.1,4.1,6,11.5,2.1,16.7L357,379c-3.4,4.4-2.5,10.6,1.8,14s10.6,2.5,14-1.8l16.9-22l0.1-0.1l20.9-27.2
	c5.3-6.9,8.2-15.4,8.2-24v-90c0-7.4,6-13.4,13.4-13.4c6.9,0,12.7,5.2,13.3,12.1l10.7,112.7c0.5,4.9-0.9,9.7-3.8,13.6L365.6,466
	c-1.3,1.7-2.1,3.9-2.1,6.1v29c0,5.5,4.5,10,10,10s10-4.5,10-10v-25.6L468.4,365C474.2,357,477,347.2,476.1,337.3z"/>
<path class="st0" d="M160,111.9c3.5,2.3,8.3,2.2,11.6-0.4c3.1-2.4,4.6-6.7,3.6-10.5c-1.1-4.1-4.8-7.1-9.1-7.4
	c-4.2-0.2-8.2,2.4-9.8,6.3C154.6,104.2,156.2,109.3,160,111.9z"/>
</svg>
